<?xml version="1.0" standalone="no"?>
<!DOCTYPE svg PUBLIC "-//W3C//DTD SVG 20010904//EN"
 "http://www.w3.org/TR/2001/REC-SVG-20010904/DTD/svg10.dtd">
<svg version="1.0" xmlns="http://www.w3.org/2000/svg"
 width="1052.000000pt" height="1052.000000pt" viewBox="0 0 1052.000000 1052.000000"
 preserveAspectRatio="xMidYMid meet">
<metadata>
Created by potrace 1.14, written by Peter Selinger 2001-2017
</metadata>
<g transform="translate(0.000000,1052.000000) scale(0.100000,-0.100000)"
fill="#000000" stroke="none">
<path d="M3951 9718 c-10 -24 -190 -434 -401 -913 -210 -478 -447 -1017 -526
-1197 -144 -329 -330 -751 -559 -1273 -258 -586 -431 -981 -565 -1285 -76
-173 -191 -434 -255 -580 -64 -146 -179 -407 -255 -580 -145 -330 -368 -838
-547 -1245 -58 -132 -123 -278 -143 -325 -20 -47 -85 -193 -143 -325 -58 -132
-164 -373 -235 -535 -71 -162 -155 -353 -187 -425 -32 -71 -73 -165 -91 -207
l-33 -78 1213 0 1214 0 15 43 c9 23 68 168 132 322 157 378 331 796 486 1170
l128 310 2047 0 2047 0 147 -380 c80 -209 220 -569 309 -800 89 -231 183 -475
209 -542 l46 -123 1258 0 1257 0 -33 78 c-62 143 -932 2139 -991 2272 -18 41
-164 375 -324 743 -350 802 -728 1669 -1281 2937 -605 1388 -1046 2399 -1180
2705 l-118 270 -1311 3 -1312 2 -18 -42z m1497 -2503 c98 -253 310 -795 470
-1205 160 -410 388 -992 506 -1295 118 -302 212 -553 210 -557 -7 -10 -2791
-10 -2798 0 -2 4 38 113 91 242 52 129 191 474 308 765 504 1250 601 1490 744
1845 84 206 179 444 213 528 34 84 65 149 69 145 4 -5 88 -215 187 -468z"/>
</g>
</svg>
